<?xml version="1.0" encoding="utf-8"?>
<!-- Generator: Adobe Illustrator 16.0.0, SVG Export Plug-In . SVG Version: 6.00 Build 0)  -->
<!DOCTYPE svg PUBLIC "-//W3C//DTD SVG 1.1//EN" "http://www.w3.org/Graphics/SVG/1.1/DTD/svg11.dtd">
<svg version="1.1" id="Layer_1" xmlns="http://www.w3.org/2000/svg" xmlns:xlink="http://www.w3.org/1999/xlink" x="0px" y="0px"
	 width="55px" height="55px" viewBox="0 0 55 55" enable-background="new 0 0 55 55" xml:space="preserve">
<g>
	<circle fill="#121112" cx="27.5" cy="27.5" r="27.5"/>
	<g>
		<path fill="#7BC043" d="M21.559,23.298h3.939v4.596c0,0.853-0.125,1.668-0.376,2.445c-0.251,0.777-0.644,1.467-1.179,2.068
			c-0.535,0.603-1.211,1.078-2.03,1.428s-1.795,0.525-2.931,0.525c-1.179,0-2.184-0.176-3.012-0.525
			c-0.83-0.35-1.512-0.82-2.047-1.411s-0.922-1.28-1.162-2.068s-0.36-1.619-0.36-2.495V13.418h4.234v4.366h8.862v3.02h-8.862v6.63
			c0,1.029,0.189,1.822,0.57,2.38c0.381,0.558,1.006,0.837,1.875,0.837c0.849,0,1.474-0.273,1.875-0.821
			c0.402-0.547,0.603-1.323,0.603-2.33V23.298z"/>
		<path fill="#7BC043" d="M38.332,31.744c-0.308,0.729-0.859,1.299-1.658,1.708c-0.799,0.408-1.724,0.612-2.773,0.612
			c-1.335,0-2.457-0.234-3.364-0.705c-0.909-0.471-1.642-1.089-2.199-1.854c-0.558-0.766-0.963-1.652-1.215-2.659
			c-0.251-1.006-0.377-2.035-0.377-3.085c0-1.248,0.186-2.391,0.558-3.43c0.372-1.04,0.875-1.925,1.51-2.659
			s1.379-1.302,2.231-1.707c0.854-0.405,1.773-0.607,2.758-0.607c2.014,0,3.523,0.81,4.53,2.429v-2.002h4.267v16.313
			c0,1.226-0.208,2.303-0.624,3.233c-0.415,0.93-0.984,1.707-1.706,2.33c-0.722,0.624-1.575,1.1-2.561,1.428
			c-0.984,0.329-2.035,0.493-3.151,0.493s-2.155-0.161-3.118-0.48c-0.963-0.32-1.789-0.773-2.478-1.358
			c-0.69-0.585-1.231-1.295-1.625-2.129c-0.394-0.835-0.591-1.777-0.591-2.827h3.939c0,0.984,0.324,1.744,0.973,2.281
			c0.648,0.536,1.511,0.804,2.588,0.804c1.143,0,2.109-0.311,2.901-0.934c0.79-0.623,1.187-1.469,1.187-2.54V31.744z M34.819,30.684
			c1.051,0,1.921-0.397,2.609-1.193c0.689-0.796,1.034-1.881,1.034-3.255c0-3.446-1.215-5.169-3.644-5.169s-3.644,1.635-3.644,4.907
			c0,1.439,0.345,2.585,1.034,3.435C32.899,30.259,33.769,30.684,34.819,30.684z"/>
	</g>
</g>
</svg>
