<?xml version="1.0" encoding="utf-8"?>
<!-- Generator: Adobe Illustrator 16.0.3, SVG Export Plug-In . SVG Version: 6.00 Build 0)  -->
<!DOCTYPE svg PUBLIC "-//W3C//DTD SVG 1.1//EN" "http://www.w3.org/Graphics/SVG/1.1/DTD/svg11.dtd">
<svg version="1.1" id="Layer_1" xmlns="http://www.w3.org/2000/svg" xmlns:xlink="http://www.w3.org/1999/xlink" x="0px" y="0px"
	 width="16px" height="16px" viewBox="0 0 16 16" enable-background="new 0 0 16 16" xml:space="preserve">
<path fill="#999" d="M8,0C3.582,0,0,3.582,0,8c0,4.418,3.582,8,8,8s8-3.582,8-8C16,3.582,12.418,0,8,0z M11.391,10.646
	c-0.174,0-0.328-0.078-0.434-0.199l-2.99-2.991l-3.031,3.03c-0.103,0.099-0.242,0.16-0.396,0.16c-0.314,0-0.571-0.256-0.571-0.571
	c0-0.153,0.061-0.294,0.16-0.396l3.425-3.425c0.104-0.109,0.249-0.177,0.411-0.177h0.001c0.001,0,0.001,0,0.001,0
	c0.161,0,0.308,0.067,0.411,0.177h0.001l3.425,3.425h-0.001c0.098,0.104,0.158,0.242,0.158,0.396
	C11.961,10.391,11.705,10.646,11.391,10.646z"/>
</svg>
