<?xml version="1.0" encoding="utf-8"?>
<!-- Generator: Adobe Illustrator 16.0.3, SVG Export Plug-In . SVG Version: 6.00 Build 0)  -->
<!DOCTYPE svg PUBLIC "-//W3C//DTD SVG 1.1//EN" "http://www.w3.org/Graphics/SVG/1.1/DTD/svg11.dtd">
<svg version="1.1" id="Capa_1" xmlns="http://www.w3.org/2000/svg" xmlns:xlink="http://www.w3.org/1999/xlink" x="0px" y="0px"
	 width="100px" height="100px" viewBox="58 23 100 100" enable-background="new 58 23 100 100" xml:space="preserve">
<g>
	<path d="M135.958,69.106c0-1.784-0.634-3.345-1.903-4.683L97.262,27.683c-1.302-1.305-3.053-2.411-5.248-3.319
		C89.819,23.455,87.812,23,85.993,23H64.587c-1.783,0-3.328,0.652-4.631,1.955C58.651,26.259,58,27.802,58,29.587v21.406
		c0,1.818,0.454,3.824,1.364,6.02c0.909,2.196,2.016,3.928,3.319,5.198l36.793,36.844c1.27,1.27,2.812,1.904,4.631,1.904
		c1.783,0,3.345-0.635,4.683-1.904l25.266-25.316C135.324,72.468,135.958,70.926,135.958,69.106z M79.124,44.124
		c-1.287,1.286-2.839,1.93-4.657,1.93c-1.818,0-3.371-0.644-4.657-1.93c-1.287-1.287-1.929-2.839-1.929-4.657
		s0.643-3.371,1.929-4.657c1.286-1.287,2.839-1.93,4.657-1.93c1.818,0,3.371,0.644,4.657,1.93c1.286,1.286,1.93,2.838,1.93,4.657
		S80.41,42.837,79.124,44.124z"/>
	<path d="M153.814,64.424l-36.792-36.741c-1.305-1.304-3.054-2.41-5.249-3.318c-2.194-0.909-4.202-1.364-6.021-1.364H94.227
		c1.818,0,3.824,0.455,6.02,1.364c2.196,0.91,3.945,2.015,5.249,3.318l36.793,36.741c1.269,1.338,1.903,2.898,1.903,4.683
		c0,1.819-0.635,3.361-1.903,4.632l-24.186,24.185c1.029,1.063,1.939,1.835,2.727,2.316c0.79,0.48,1.802,0.72,3.037,0.72
		c1.784,0,3.345-0.635,4.683-1.904l25.266-25.316c1.27-1.271,1.904-2.813,1.904-4.632C155.719,67.322,155.084,65.762,153.814,64.424
		z"/>
</g>
</svg>
