<?xml version="1.0" encoding="utf-8"?>
<!-- Generator: Adobe Illustrator 16.0.3, SVG Export Plug-In . SVG Version: 6.00 Build 0)  -->
<!DOCTYPE svg PUBLIC "-//W3C//DTD SVG 1.1//EN" "http://www.w3.org/Graphics/SVG/1.1/DTD/svg11.dtd">
<svg version="1.1" id="Layer_1" xmlns="http://www.w3.org/2000/svg" xmlns:xlink="http://www.w3.org/1999/xlink" x="0px" y="0px"
	 width="50px" height="49.996px" viewBox="0 0 50 49.996" enable-background="new 0 0 50 49.996" xml:space="preserve">
<g>
	<path d="M 11.224,27.557 15.005,27.557 15.005,31.338 11.224,31.338z"/>
	<rect x="11.224" y="19.994" width="3.781" height="3.781"/>
	<rect x="18.786" y="19.994" width="3.781" height="3.781"/>
	<rect x="18.786" y="27.557" width="3.781" height="3.781"/>
	<rect x="18.786" y="35.119" width="3.781" height="3.781"/>
	<rect x="11.224" y="35.119" width="3.781" height="3.781"/>
	<path d="M44.305,11.557c0,0-33.438,0-39.205,0c-1.69,0-3.193-0.339-3.193-1.926l42.396-1.926V3.853
		c0-3.19-2.589-3.853-5.779-3.853L3.893,5.779C0.808,6.465,0,7.773,0,9.631v34.674c0,3.19,2.59,5.778,5.78,5.778h38.525
		c3.189,0,5.778-2.588,5.778-5.778V17.336C50.083,14.145,47.494,11.557,44.305,11.557z M24.458,46.463H9.333v-30.25h15.125V46.463z
		 M39.583,46.463h-3.78V38.9H30.13v7.563h-3.78V29.447h13.233V46.463z M39.583,27.557H26.35v-1.891h13.233V27.557z M45.708,32.836
		c-0.966,0-1.75-0.783-1.75-1.75s0.784-1.75,1.75-1.75s1.75,0.783,1.75,1.75S46.674,32.836,45.708,32.836z"/>
</g>
</svg>
