<?xml version="1.0" encoding="utf-8"?>
<!-- Generator: Adobe Illustrator 16.0.3, SVG Export Plug-In . SVG Version: 6.00 Build 0)  -->
<!DOCTYPE svg PUBLIC "-//W3C//DTD SVG 1.1//EN" "http://www.w3.org/Graphics/SVG/1.1/DTD/svg11.dtd">
<svg version="1.1" id="Layer_6" xmlns="http://www.w3.org/2000/svg" xmlns:xlink="http://www.w3.org/1999/xlink" x="0px" y="0px"
	 width="100px" height="100px" viewBox="0 0 100 100" enable-background="new 0 0 100 100" xml:space="preserve">
<g>
	<path d="M33.713,60.096h8.946v-6.58h-9.833C32.921,55.784,33.219,57.99,33.713,60.096z"/>
	<path d="M36.657,67.627c1.107,1.844,2.413,3.328,3.78,4.291c0.729,0.514,1.473,0.881,2.222,1.099v-9.628h-7.981
		C35.231,64.931,35.893,66.352,36.657,67.627z"/>
	<path d="M32.826,50.226h9.833v-6.581h-8.946C33.219,45.751,32.921,47.957,32.826,50.226z"/>
	<path d="M36.657,36.115c-0.764,1.276-1.426,2.696-1.978,4.24h7.981v-9.63c-0.749,0.218-1.493,0.583-2.222,1.099
		C39.07,32.787,37.765,34.27,36.657,36.115z"/>
	<path d="M35.081,32.57c-2.187,1.047-4.166,2.449-5.897,4.178c-1.104,1.105-2.075,2.311-2.904,3.606h4.93
		C32.167,37.335,33.49,34.685,35.081,32.57z"/>
	<path d="M26.279,63.389c0.829,1.295,1.8,2.501,2.904,3.605c1.73,1.73,3.71,3.132,5.897,4.179c-1.591-2.115-2.913-4.765-3.873-7.784
		H26.279L26.279,63.389z"/>
	<path d="M30.344,43.646H24.56c-0.877,2.102-1.406,4.309-1.578,6.581h6.553C29.624,47.933,29.902,45.725,30.344,43.646z"/>
	<path d="M29.534,53.516h-6.553c0.172,2.272,0.7,4.479,1.578,6.58h5.784C29.902,58.015,29.624,55.808,29.534,53.516z"/>
	<path d="M51.954,36.115c-1.109-1.845-2.414-3.328-3.78-4.292c-0.729-0.514-1.473-0.88-2.223-1.099v9.63h7.981
		C53.381,38.811,52.719,37.391,51.954,36.115z"/>
	<path d="M59.078,50.226h6.552c-0.173-2.272-0.7-4.479-1.576-6.581H58.27C58.707,45.725,58.986,47.933,59.078,50.226z"/>
	<path d="M53.53,32.57c1.591,2.114,2.914,4.765,3.872,7.785h4.931c-0.83-1.295-1.802-2.503-2.906-3.606
		C57.697,35.019,55.719,33.617,53.53,32.57z"/>
	<path d="M85.144,1.743h-5.187C79.822,0.762,78.915,0,77.805,0H14.041c-1.204,0-2.179,0.89-2.179,1.988v95.969
		c0,1.097,0.975,1.988,2.179,1.988h63.764c1.11,0,2.02-0.762,2.153-1.742h5.186c1.651,0,2.995-1.504,2.995-3.352V5.094
		C88.139,3.247,86.794,1.743,85.144,1.743z M44.306,76.547c-13.629,0-24.676-11.048-24.676-24.676
		c0-13.629,11.047-24.676,24.676-24.676c13.628,0,24.676,11.047,24.676,24.676C68.981,65.499,57.934,76.547,44.306,76.547z
		 M85.155,94.852c0,0.191-0.064,0.313-0.104,0.368h-5.066V4.726h5.066c0.039,0.054,0.104,0.177,0.104,0.368V94.852z"/>
	<path d="M58.269,60.096h5.782c0.877-2.102,1.405-4.308,1.579-6.58h-6.553C58.986,55.808,58.707,58.015,58.269,60.096z"/>
	<path d="M54.897,43.646h-8.946v6.581h9.835C55.689,47.957,55.393,45.751,54.897,43.646z"/>
	<path d="M55.786,53.516h-9.835v6.58h8.946C55.393,57.99,55.689,55.784,55.786,53.516z"/>
	<path d="M53.53,71.171c2.187-1.046,4.167-2.449,5.896-4.178c1.104-1.104,2.076-2.31,2.906-3.607h-4.931
		C56.444,66.406,55.121,69.057,53.53,71.171z"/>
	<path d="M45.951,63.389v9.628c0.75-0.218,1.494-0.585,2.223-1.099c1.366-0.963,2.671-2.447,3.78-4.291
		c0.765-1.275,1.427-2.696,1.979-4.241h-7.981V63.389z"/>
</g>
</svg>
