<?xml version="1.0" encoding="utf-8"?>
<!-- Generator: Adobe Illustrator 16.0.0, SVG Export Plug-In . SVG Version: 6.00 Build 0)  -->
<!DOCTYPE svg PUBLIC "-//W3C//DTD SVG 1.1//EN" "http://www.w3.org/Graphics/SVG/1.1/DTD/svg11.dtd">
<svg version="1.1" id="Layer_1" xmlns="http://www.w3.org/2000/svg" xmlns:xlink="http://www.w3.org/1999/xlink" x="0px" y="0px"
	 width="64px" height="49.826px" viewBox="0 8.341 64 49.826" enable-background="new 0 8.341 64 49.826" xml:space="preserve">
<g>
	<path fill="#FFFFFF" d="M37.464,8.842c-1.784,0-3.554,0.194-5.258,0.573l0.028,0.129c-1.83-0.439-3.731-0.703-5.694-0.703
		c-13.363,0-24.234,10.872-24.234,24.233c0,13.359,10.872,24.23,24.234,24.23c1.87,0,3.683-0.234,5.432-0.633
		c1.79,0.416,3.635,0.633,5.492,0.633c13.358,0,24.229-10.871,24.229-24.23C61.693,19.713,50.822,8.842,37.464,8.842z M27.59,44.367
		l-0.004,3.836h-2.322v-3.688c-2.141-0.039-4.317-0.705-5.609-1.627l0.884-2.467c1.288,0.848,3.214,1.582,5.278,1.582
		c2.621,0,4.155-1.51,4.155-3.617c0-2.027-1.204-3.283-3.933-4.391c-3.76-1.478-6.09-3.21-6.086-6.421
		c0-3.062,2.172-5.383,5.532-5.941v-3.69h2.326l-0.004,3.586c2.181,0.069,3.691,0.663,4.796,1.289l-0.919,2.435
		c-0.775-0.44-2.29-1.292-4.652-1.292c-2.839,0-3.671,1.7-3.671,3.21c0,1.882,1.127,2.839,4.337,4.204
		c3.8,1.555,5.718,3.437,5.718,6.72C33.417,41.043,31.39,43.777,27.59,44.367z M37.464,54.973c-0.187,0-0.366-0.025-0.549-0.033
		c8.178-3.896,13.854-12.217,13.854-21.863c0-9.652-5.682-17.976-13.858-21.869c0.187-0.004,0.366-0.033,0.553-0.033
		c12.075,0,21.896,9.826,21.896,21.899C59.359,45.15,49.539,54.973,37.464,54.973z"/>
</g>
</svg>
