<?xml version="1.0" encoding="utf-8"?>
<!-- Generator: Adobe Illustrator 16.0.3, SVG Export Plug-In . SVG Version: 6.00 Build 0)  -->
<!DOCTYPE svg PUBLIC "-//W3C//DTD SVG 1.1//EN" "http://www.w3.org/Graphics/SVG/1.1/DTD/svg11.dtd">
<svg version="1.1" id="Layer_1" xmlns="http://www.w3.org/2000/svg" xmlns:xlink="http://www.w3.org/1999/xlink" x="0px" y="0px"
	 width="53px" height="49.996px" viewBox="0 0 53 49.996" enable-background="new 0 0 53 49.996" xml:space="preserve">
<path d="M11.674,46.121c-2.785,0-5.049-2.262-5.049-5.048v-24.73c-0.924,0-1.67,0-2.17,0
	c-1.477,0-2.789-0.296-2.789-1.683l4.959-0.226v-3.65c0-0.01,0.001-0.019,0.002-0.028L3.4,11.294C0.705,11.893,0,13.036,0,14.659
	v30.289c0,2.786,2.264,5.048,5.049,5.048h33.652c2.381,0,4.367-1.656,4.898-3.875H11.674z"/>
<path d="M47.701,10.343c0,0-29.208,0-34.246,0c-1.477,0-2.789-0.296-2.789-1.683l37.035-1.683V3.612
	c0-2.787-2.262-3.366-5.049-3.366L12.4,5.294C9.705,5.893,9,7.036,9,8.659v30.289c0,2.786,2.264,5.048,5.049,5.048h33.652
	c2.787,0,5.049-2.262,5.049-5.048V15.389C52.75,12.604,50.488,10.343,47.701,10.343z M42.673,29.427c0,1.769-1.433,3.2-3.2,3.2
	c-1.767,0-3.199-1.434-3.199-3.2s1.433-3.2,3.199-3.2C41.24,26.227,42.673,27.66,42.673,29.427z M38.514,23.26
	c0,1.765-1.43,3.201-3.201,3.201c-1.762,0-3.199-1.436-3.199-3.201c0-1.766,1.434-3.2,3.199-3.2
	C37.084,20.06,38.514,21.495,38.514,23.26z M34.209,29.427c0,1.769-1.434,3.2-3.2,3.2s-3.2-1.434-3.2-3.2s1.434-3.2,3.2-3.2
	S34.209,27.66,34.209,29.427z M31.01,14.127c1.768,0,3.2,1.433,3.2,3.2c0,1.767-1.433,3.2-3.2,3.2c-1.767,0-3.199-1.433-3.199-3.2
	C27.811,15.56,29.243,14.127,31.01,14.127z M26.703,20.06c1.768,0,3.201,1.433,3.201,3.201c0,1.768-1.434,3.201-3.201,3.201
	c-1.768,0-3.201-1.433-3.201-3.201C23.502,21.493,24.935,20.06,26.703,20.06z M22.544,26.227c1.768,0,3.2,1.435,3.2,3.2
	c0,1.769-1.433,3.2-3.2,3.2s-3.2-1.434-3.2-3.2S20.777,26.227,22.544,26.227z M43.818,39.434H18.214V37.12
	c0-2.304,1.941-4.169,4.337-4.169c2.077,0,3.804,1.402,4.232,3.275c0.421-1.875,2.152-3.275,4.229-3.275s3.805,1.402,4.232,3.275
	c0.425-1.875,2.152-3.275,4.229-3.275c2.396,0,4.34,1.865,4.346,4.169V39.434L43.818,39.434z M48.375,28.583
	c-0.967,0-1.75-0.784-1.75-1.75s0.783-1.75,1.75-1.75s1.75,0.784,1.75,1.75S49.342,28.583,48.375,28.583z"/>
</svg>
