<?xml version="1.0" encoding="utf-8"?>
<!-- Generator: Adobe Illustrator 16.0.3, SVG Export Plug-In . SVG Version: 6.00 Build 0)  -->
<!DOCTYPE svg PUBLIC "-//W3C//DTD SVG 1.1//EN" "http://www.w3.org/Graphics/SVG/1.1/DTD/svg11.dtd">
<svg version="1.1" xmlns="http://www.w3.org/2000/svg" xmlns:xlink="http://www.w3.org/1999/xlink" x="0px" y="0px" width="512px"
	 height="512px" viewBox="0 0 512 512" enable-background="new 0 0 512 512" xml:space="preserve">
<g id="Layer_1">
	<g id="Capa_1">
		<path d="M128,160c0,70.692,57.308,128,128,128c70.689,0,128-57.308,128-128S326.692,32,256,32C185.308,32,128,89.308,128,160z
			 M384,320H128C57.308,320,0,377.309,0,448v32h4.033h503.934H512v-32C512,377.309,454.692,320,384,320z"/>
	</g>
	<g id="Layer_2">
		<g>
			<g>
				<path d="M447.823,503.474c-20.666,0-37.479-16.813-37.479-37.479c0-0.655,0.021-1.319,0.062-1.996l-48.157-28.893
					c-5.835,3.549-12.449,5.407-19.354,5.407c-20.666,0-37.479-16.813-37.479-37.479c0-20.665,16.813-37.477,37.479-37.477
					c6.904,0,13.519,1.858,19.354,5.407l48.157-28.895c-0.041-0.677-0.062-1.34-0.062-1.995c0-20.665,16.813-37.478,37.479-37.478
					s37.479,16.813,37.479,37.478c0,20.667-16.813,37.48-37.479,37.48c-6.903,0-13.518-1.859-19.353-5.41l-48.159,28.896
					c0.041,0.678,0.062,1.341,0.062,1.993s-0.021,1.315-0.062,1.993l48.159,28.897c5.837-3.552,12.451-5.411,19.353-5.411
					c20.666,0,37.479,16.813,37.479,37.48C485.303,486.661,468.49,503.474,447.823,503.474z"/>
				<path fill="#FFFFFF" d="M447.823,308.599c17.384,0,31.479,14.095,31.479,31.478c0,17.384-14.096,31.48-31.479,31.48
					c-7.21,0-13.836-2.45-19.144-6.533l-54.763,32.858c0.274,1.685,0.456,3.394,0.456,5.153c0,1.759-0.182,3.472-0.456,5.153
					l54.763,32.859c5.308-4.081,11.934-6.533,19.144-6.533c17.384,0,31.479,14.098,31.479,31.48
					c0,17.381-14.096,31.479-31.479,31.479c-17.382,0-31.479-14.098-31.479-31.479c0-1.76,0.181-3.472,0.459-5.154l-54.764-32.856
					c-5.309,4.082-11.932,6.529-19.145,6.529c-17.383,0-31.479-14.094-31.479-31.479c0-17.382,14.097-31.477,31.479-31.477
					c7.213,0,13.836,2.447,19.145,6.529l54.764-32.858c-0.278-1.682-0.459-3.394-0.459-5.153
					C416.344,322.693,430.442,308.599,447.823,308.599 M447.823,296.599c-23.514,0-42.728,18.761-43.458,42.099l-42.247,25.349
					c-5.939-2.953-12.461-4.487-19.224-4.487c-23.975,0-43.479,19.504-43.479,43.477c0,23.975,19.505,43.479,43.479,43.479
					c6.763,0,13.284-1.535,19.224-4.488l42.247,25.348c0.73,23.339,19.944,42.101,43.458,42.101
					c23.975,0,43.479-19.505,43.479-43.479c0-23.976-19.505-43.48-43.479-43.48c-6.761,0-13.282,1.536-19.223,4.491l-39.949-23.971
					l39.948-23.969c5.939,2.954,12.462,4.49,19.224,4.49c23.975,0,43.479-19.505,43.479-43.48
					C491.303,316.103,471.798,296.599,447.823,296.599L447.823,296.599z"/>
			</g>
		</g>
	</g>
</g>
<g id="Layer_2_1_" display="none">
	<g display="inline">
		<path fill="#010101" d="M739.49,167.132c-16.192,0-31.416-6.304-42.865-17.75c-23.631-23.639-23.631-62.1-0.002-85.737
			l37.206-37.206c4.626-4.625,9.867-8.411,15.54-11.28l-4.992,0.731l45.267-45.268c11.453-11.449,26.678-17.754,42.869-17.754
			s31.415,6.305,42.868,17.753c23.63,23.64,23.63,62.098,0.001,85.732l-37.22,37.208c-4.615,4.617-9.844,8.398-15.504,11.268
			l4.983-0.732l-45.285,45.285C770.906,160.828,755.683,167.132,739.49,167.132z M726.54,93.562
			c-7.137,7.141-7.137,18.762,0.002,25.904c3.448,3.445,8.047,5.345,12.948,5.345c4.9,0,9.5-1.899,12.95-5.348l14.925-14.932
			c-5.438-2.831-10.47-6.512-14.928-10.973c-3.313-3.299-6.244-7.176-9.215-12.188l-1.67-2.818L726.54,93.562z M777.883,55.892
			c0.899,3.075,2.403,5.684,4.473,7.752c3.449,3.451,8.045,5.351,12.942,5.351c0.092,0,0.185-0.001,0.275-0.002l-1.442-4.871
			c-0.915-3.092-2.425-5.704-4.486-7.766C786.193,52.901,781.597,51,776.701,51c-0.083,0-0.165,0-0.248,0.001L777.883,55.892z
			 M804.641,15.475c5.437,2.829,10.465,6.507,14.921,10.965c3.386,3.379,6.321,7.265,9.233,12.225l1.639,2.793l15.019-15.02
			c3.454-3.453,5.356-8.053,5.356-12.951c0-4.897-1.901-9.494-5.354-12.944c-3.451-3.453-8.047-5.354-12.943-5.354
			c-4.898,0-9.499,1.901-12.952,5.353L804.641,15.475z"/>
		<path fill="#FFFFFF" d="M832.513-39.132c13.467,0,26.934,5.137,37.212,15.411c20.543,20.551,20.543,53.869,0,74.418
			l-37.219,37.206c-10.271,10.277-23.738,15.417-37.205,15.417s-26.934-5.14-37.205-15.417c-3.237-3.225-5.768-6.86-7.991-10.612
			l17.293-17.293c0.821-0.828,1.837-1.303,2.807-1.862c1.194,4.086,3.282,7.953,6.495,11.165c5.127,5.13,11.864,7.693,18.599,7.693
			c6.74,0,13.479-2.565,18.606-7.693l37.205-37.206c10.266-10.265,10.266-26.954,0-37.212c-5.126-5.129-11.861-7.694-18.598-7.694
			c-6.737,0-13.476,2.565-18.607,7.694L800.671,8.129c-7.588-2.957-15.594-4.385-23.613-4.385c-3.324,0-6.65,0.245-9.95,0.729
			l28.193-28.193C805.578-33.995,819.045-39.132,832.513-39.132 M776.698,16.685c13.468,0,26.935,5.137,37.206,15.411
			c3.237,3.23,5.781,6.854,7.991,10.618L804.603,60c-0.822,0.822-1.824,1.284-2.801,1.85c-1.208-4.079-3.295-7.946-6.501-11.151
			c-5.129-5.132-11.863-7.698-18.6-7.698c-6.735,0-13.473,2.566-18.605,7.698l-37.212,37.206c-10.259,10.264-10.259,26.952,0,37.217
			c5.13,5.127,11.868,7.689,18.606,7.689s13.477-2.563,18.605-7.689l13.239-13.245c7.583,2.951,15.585,4.381,23.605,4.381
			c3.325,0,6.655-0.246,9.958-0.731l-28.199,28.199c-10.275,10.271-23.742,15.407-37.209,15.407
			c-13.468,0-26.935-5.136-37.209-15.407c-20.549-20.556-20.549-53.868,0-74.424l37.205-37.205
			C749.762,21.821,763.231,16.685,776.698,16.685 M832.513-55.132c-18.328,0-35.562,7.137-48.524,20.096L755.794-6.841
			l-34.147,34.147l0.002-0.001l-30.681,30.682c-26.749,26.758-26.749,70.293-0.002,97.049c12.964,12.96,30.195,20.096,48.524,20.096
			c18.328,0,35.561-7.136,48.521-20.092l28.201-28.201l34.172-34.171l-0.015,0.002l30.667-30.657
			c26.75-26.757,26.75-70.289,0.004-97.045C868.073-47.995,850.84-55.132,832.513-55.132L832.513-55.132z M817.391,14.031
			l7.833-7.84c1.934-1.934,4.525-3.003,7.288-3.003c2.759,0,5.345,1.067,7.28,3.004c1.948,1.947,3.017,4.534,3.017,7.294
			c0,2.762-1.069,5.352-3.013,7.294l-7.919,7.919c-2.101-2.949-4.309-5.572-6.671-7.93
			C822.748,18.312,820.136,16.063,817.391,14.031L817.391,14.031z M739.49,116.811c-2.765,0-5.356-1.067-7.296-3.007
			c-4.016-4.018-4.016-10.564,0.006-14.589l7.921-7.919c2.116,2.979,4.305,5.574,6.684,7.943c2.454,2.456,5.065,4.704,7.809,6.733
			l-7.834,7.837C744.846,115.743,742.255,116.811,739.49,116.811L739.49,116.811z"/>
	</g>
</g>
</svg>
