<?xml version="1.0" encoding="utf-8"?>
<!-- Generator: Adobe Illustrator 16.0.3, SVG Export Plug-In . SVG Version: 6.00 Build 0)  -->
<!DOCTYPE svg PUBLIC "-//W3C//DTD SVG 1.1//EN" "http://www.w3.org/Graphics/SVG/1.1/DTD/svg11.dtd">
<svg version="1.1" id="Layer_1" xmlns="http://www.w3.org/2000/svg" xmlns:xlink="http://www.w3.org/1999/xlink" x="0px" y="0px"
	 width="20px" height="20px" viewBox="0 0 20 20" enable-background="new 0 0 20 20" xml:space="preserve">
<polygon fill="#FFFFFF" points="5,1 5,3 15,3 15,16 17,16 17,1 "/>
<path fill="#FFFFFF" d="M2,4v15h12V4H2z M12.9,9.447L7.597,14.75c-0.18,0.18-0.428,0.291-0.703,0.291S6.371,14.93,6.191,14.75
	l-2.983-2.983c-0.18-0.18-0.292-0.428-0.292-0.703c0-0.549,0.445-0.993,0.994-0.993c0.274,0,0.523,0.111,0.703,0.291l2.28,2.281
	l4.6-4.601c0.18-0.18,0.43-0.292,0.703-0.292c0.549,0,0.994,0.445,0.994,0.995C13.191,9.018,13.08,9.268,12.9,9.447z"/>
</svg>
