<?xml version="1.0" encoding="utf-8"?>
<!-- Generator: Adobe Illustrator 16.0.3, SVG Export Plug-In . SVG Version: 6.00 Build 0)  -->
<!DOCTYPE svg PUBLIC "-//W3C//DTD SVG 1.1//EN" "http://www.w3.org/Graphics/SVG/1.1/DTD/svg11.dtd">
<svg version="1.1" id="Layer_1" xmlns="http://www.w3.org/2000/svg" xmlns:xlink="http://www.w3.org/1999/xlink" x="0px" y="0px"
	 width="32px" height="32px" viewBox="0 0 32 32" enable-background="new 0 0 32 32" xml:space="preserve">
<g id="tag">
	<path d="M31.391,13.883l-5-8c-0.729-1.169-2.012-1.88-3.391-1.88H4c-2.209,0-4,1.791-4,4v16c0,2.209,1.791,4,4,4h19
		c1.379,0,2.66-0.711,3.391-1.881l5-8C32.203,16.827,32.203,15.18,31.391,13.883z M29.695,17.063l-5,8.002
		c-0.367,0.588-1.002,0.938-1.695,0.938H4c-1.103,0-2-0.897-2-2v-16c0-1.103,0.897-2,2-2h19c0.693,0,1.328,0.352,1.695,0.939l5,8
		C30.098,15.587,30.098,16.419,29.695,17.063z"/>
</g>
<g>
	<path d="M15.069,22.293l-0.003,2.094h-1.268v-2.014c-1.168-0.021-2.355-0.385-3.062-0.889l0.483-1.346
		c0.703,0.463,1.754,0.863,2.88,0.863c1.431,0,2.269-0.824,2.269-1.975c0-1.105-0.657-1.791-2.146-2.396
		c-2.053-0.806-3.324-1.751-3.322-3.504c0-1.671,1.186-2.938,3.02-3.243V7.87h1.27l-0.002,1.958c1.19,0.038,2.015,0.362,2.618,0.704
		l-0.502,1.329c-0.423-0.24-1.25-0.706-2.539-0.706c-1.55,0-2.004,0.928-2.004,1.752c0,1.028,0.615,1.55,2.367,2.295
		c2.074,0.849,3.121,1.876,3.121,3.667C18.25,20.479,17.144,21.971,15.069,22.293z"/>
</g>
</svg>
