<?xml version="1.0" encoding="utf-8"?>
<!-- Generator: Adobe Illustrator 16.0.3, SVG Export Plug-In . SVG Version: 6.00 Build 0)  -->
<!DOCTYPE svg PUBLIC "-//W3C//DTD SVG 1.1//EN" "http://www.w3.org/Graphics/SVG/1.1/DTD/svg11.dtd">
<svg version="1.1" id="Layer_1" xmlns="http://www.w3.org/2000/svg" xmlns:xlink="http://www.w3.org/1999/xlink" x="0px" y="0px"
	 width="53px" height="49.996px" viewBox="0 0 53 49.996" enable-background="new 0 0 53 49.996" xml:space="preserve">
<path d="M11.674,46.121c-2.785,0-5.049-2.262-5.049-5.048v-24.73c-0.924,0-1.67,0-2.17,0
	c-1.477,0-2.789-0.296-2.789-1.683l4.959-0.226v-3.65c0-0.01,0.001-0.019,0.002-0.028L3.4,11.294C0.705,11.893,0,13.036,0,14.659
	v30.289c0,2.786,2.264,5.048,5.049,5.048h33.652c2.381,0,4.367-1.656,4.898-3.875H11.674z"/>
<path d="M47.701,10.343c0,0-29.208,0-34.246,0c-1.477,0-2.789-0.296-2.789-1.683l37.035-1.683V3.612
	c0-2.787-2.262-3.366-5.049-3.366L12.4,5.294C9.705,5.893,9,7.036,9,8.659v30.289c0,2.786,2.264,5.048,5.049,5.048h33.652
	c2.787,0,5.049-2.262,5.049-5.048V15.389C52.75,12.604,50.488,10.343,47.701,10.343z M30.54,15.251c3.844,0,6.958,3.115,6.958,6.957
	c0,3.843-3.114,6.958-6.958,6.958c-3.843,0-6.958-3.115-6.958-6.958C23.582,18.366,26.697,15.251,30.54,15.251z M44.456,39.602
	h-0.22H16.845h-0.22v-1.737c0-3.843,3.115-6.96,6.957-6.96h13.916c3.842,0,6.957,3.117,6.958,6.96V39.602z M48.375,28.583
	c-0.967,0-1.75-0.784-1.75-1.75s0.783-1.75,1.75-1.75s1.75,0.784,1.75,1.75S49.342,28.583,48.375,28.583z"/>
</svg>
