<?xml version="1.0" encoding="utf-8"?>
<!-- Generator: Adobe Illustrator 16.0.0, SVG Export Plug-In . SVG Version: 6.00 Build 0)  -->
<!DOCTYPE svg PUBLIC "-//W3C//DTD SVG 1.1//EN" "http://www.w3.org/Graphics/SVG/1.1/DTD/svg11.dtd">
<svg version="1.1" id="Layer_1" xmlns="http://www.w3.org/2000/svg" xmlns:xlink="http://www.w3.org/1999/xlink" x="0px" y="0px"
	 width="26.125px" height="26.75px" viewBox="0 0 26.125 26.75" enable-background="new 0 0 26.125 26.75" xml:space="preserve">
<g>
	<path d="M17.924,16.535c1.692-1.783,2.771-4.303,2.771-6.707c0-4.37-3.542-7.913-7.913-7.913c-4.37,0-7.912,3.542-7.912,7.913
		c0,1.081,0.228,2.181,0.621,3.23c0.972,2.19,2.881,3.892,5.298,4.51c0.479-0.592,1.201-0.946,1.993-0.946
		c1.421,0,2.576,1.155,2.576,2.576s-1.157,2.575-2.577,2.575c-1.012,0-1.906-0.59-2.325-1.471c-2.077-0.457-3.899-1.5-5.315-2.933
		C2.022,18.702,0,20.823,0,23.218c0,4.034,25.563,4.034,25.563,0C25.563,20.23,22.42,17.666,17.924,16.535z"/>
	<path d="M11.149,19.508c0.146,0.771,0.819,1.354,1.631,1.354c0.919,0,1.664-0.745,1.664-1.663s-0.745-1.664-1.663-1.664
		c-0.706,0-1.305,0.441-1.547,1.063c-4.18-0.734-7.366-4.384-7.366-8.771c0-4.915,3.999-8.914,8.913-8.914
		c4.916,0,8.914,3.999,8.914,8.914h0.913C22.608,4.409,18.2,0,12.781,0C7.363,0,2.955,4.408,2.955,9.827
		C2.954,14.689,6.508,18.727,11.149,19.508z"/>
</g>
</svg>
