<?xml version="1.0" encoding="utf-8"?>
<!-- Generator: Adobe Illustrator 16.0.3, SVG Export Plug-In . SVG Version: 6.00 Build 0)  -->
<!DOCTYPE svg PUBLIC "-//W3C//DTD SVG 1.1//EN" "http://www.w3.org/Graphics/SVG/1.1/DTD/svg11.dtd">
<svg version="1.1" id="Capa_1" xmlns="http://www.w3.org/2000/svg" xmlns:xlink="http://www.w3.org/1999/xlink" x="0px" y="0px"
	 width="21.59px" height="21.137px" viewBox="0 0 21.59 21.137" enable-background="new 0 0 21.59 21.137" xml:space="preserve">
<g>
	<path d="M15.232,5.439H4.029v9.336c0,0,0,0.934,0.934,0.934h10.585c-0.183-0.206-0.315-0.504-0.315-0.934V5.439z M9.164,13.841
		H4.963V9.173h4.201V13.841z M13.365,13.841h-3.268v-0.934h3.268V13.841z M14.299,11.974h-4.201V11.04h4.201V11.974z M14.299,10.107
		h-4.201V9.173h4.201V10.107z M14.299,8.24H4.963V7.306h9.336V8.24z"/>
	<path d="M10.564,0.01C4.73,0.01,0,4.74,0,10.574s4.729,10.563,10.563,10.563c5.833,0,10.564-4.729,10.564-10.563
		C21.129,4.74,16.398,0.01,10.564,0.01z M18.033,14.775c0,1.838-1.4,1.867-1.4,1.867H4.963c-1.867,0-1.867-1.867-1.867-1.867V4.505
		h13.07v1.867h1.867V14.775z"/>
</g>
</svg>
