<?xml version="1.0" encoding="utf-8"?>
<!-- Generator: Adobe Illustrator 16.0.3, SVG Export Plug-In . SVG Version: 6.00 Build 0)  -->
<!DOCTYPE svg PUBLIC "-//W3C//DTD SVG 1.1//EN" "http://www.w3.org/Graphics/SVG/1.1/DTD/svg11.dtd">
<svg version="1.1" id="Layer_1" xmlns="http://www.w3.org/2000/svg" xmlns:xlink="http://www.w3.org/1999/xlink" x="0px" y="0px"
	 width="50px" height="49.996px" viewBox="0 0 50 49.996" enable-background="new 0 0 50 49.996" xml:space="preserve">
<g>
	<path fill="#333333" d="M44.305,11.557c0,0-33.438,0-39.205,0c-1.69,0-3.193-0.339-3.193-1.926l42.396-1.926V3.853
		c0-3.19-2.589-3.853-5.779-3.853L3.893,5.779C0.808,6.465,0,7.773,0,9.631v34.674c0,3.19,2.59,5.778,5.78,5.778h38.525
		c3.189,0,5.778-2.588,5.778-5.778V17.336C50.083,14.145,47.494,11.557,44.305,11.557z M45.708,32.836
		c-0.966,0-1.75-0.783-1.75-1.75s0.784-1.75,1.75-1.75s1.75,0.783,1.75,1.75S46.674,32.836,45.708,32.836z"/>
</g>
</svg>
