<?xml version="1.0" encoding="utf-8"?>
<!-- Generator: Adobe Illustrator 16.0.3, SVG Export Plug-In . SVG Version: 6.00 Build 0)  -->
<!DOCTYPE svg PUBLIC "-//W3C//DTD SVG 1.1//EN" "http://www.w3.org/Graphics/SVG/1.1/DTD/svg11.dtd">
<svg version="1.1" id="Capa_1" xmlns="http://www.w3.org/2000/svg" xmlns:xlink="http://www.w3.org/1999/xlink" x="0px" y="0px"
	 width="21.59px" height="21.137px" viewBox="0 0 21.59 21.137" enable-background="new 0 0 21.59 21.137" xml:space="preserve">
<g>
	<path d="M10.564,0.009C4.73,0.009,0,4.739,0,10.573c0,5.834,4.729,10.563,10.563,10.563
		c5.834,0,10.565-4.729,10.565-10.563C21.129,4.739,16.398,0.009,10.564,0.009z M16.11,12.281l-0.385,0.916
		c0,0,0.945,1.984,0.864,2.064l-1.188,1.163c-0.08,0.076-2.145-0.804-2.145-0.804L12.32,16c0,0-0.766,2.058-0.881,2.058H9.762
		c-0.114,0-0.94-2.051-0.94-2.051l-0.936-0.379c0,0-2.027,0.924-2.108,0.845L4.589,15.31c-0.079-0.079,0.82-2.103,0.82-2.103
		l-0.386-0.915c0,0-2.103-0.749-2.103-0.864V9.785c0-0.109,2.098-0.917,2.098-0.917l0.386-0.915c0,0-0.944-1.986-0.862-2.065
		l1.187-1.163c0.079-0.078,2.148,0.801,2.148,0.801l0.934-0.378c0,0,0.764-2.058,0.881-2.058h1.677c0.113,0,0.938,2.053,0.938,2.053
		l0.936,0.377c0,0,2.026-0.924,2.108-0.844l1.188,1.16c0.081,0.079-0.817,2.104-0.817,2.104l0.386,0.917c0,0,2.102,0.747,2.1,0.86
		v1.644C18.208,11.472,16.11,12.281,16.11,12.281z"/>
	<path d="M10.566,8.175c-1.35,0-2.452,1.077-2.452,2.397c0,1.323,1.102,2.4,2.452,2.4s2.451-1.077,2.451-2.4
		C13.017,9.251,11.918,8.176,10.566,8.175z"/>
</g>
</svg>
