<?xml version="1.0" encoding="utf-8"?>
<!-- Generator: Adobe Illustrator 16.0.0, SVG Export Plug-In . SVG Version: 6.00 Build 0)  -->
<!DOCTYPE svg PUBLIC "-//W3C//DTD SVG 1.1//EN" "http://www.w3.org/Graphics/SVG/1.1/DTD/svg11.dtd">
<svg version="1.1" id="Capa_1" xmlns="http://www.w3.org/2000/svg" xmlns:xlink="http://www.w3.org/1999/xlink" x="0px" y="0px"
	 width="21.59px" height="21.137px" viewBox="0 0 21.59 21.137" enable-background="new 0 0 21.59 21.137" xml:space="preserve">
<path fill="#FFFFFF" d="M18.622,8.145L18.077,6.85c0,0,1.269-2.86,1.155-2.971L17.555,2.24c-0.117-0.113-2.979,1.192-2.979,1.192
	L13.256,2.9C13.256,2.9,12.09,0,11.93,0H9.561C9.396,0,8.317,2.906,8.317,2.906L6.999,3.441c0,0-2.922-1.241-3.034-1.131
	L2.289,3.951C2.173,4.064,3.507,6.867,3.507,6.867L2.962,8.16C2.962,8.16,0,9.301,0,9.455v2.321c0,0.162,2.969,1.22,2.969,1.22
	l0.545,1.291c0,0-1.268,2.858-1.157,2.969l1.678,1.643c0.114,0.111,2.977-1.194,2.977-1.194l1.321,0.535
	c0,0,1.166,2.897,1.327,2.897h2.369c0.164,0,1.244-2.906,1.244-2.906l1.322-0.535c0,0,2.916,1.242,3.028,1.134l1.679-1.642
	c0.116-0.114-1.221-2.916-1.221-2.916l0.544-1.293c0,0,2.963-1.143,2.963-1.299V9.36C21.59,9.199,18.622,8.145,18.622,8.145z
	 M14.256,10.568c0,1.867-1.553,3.388-3.461,3.388c-1.906,0-3.461-1.521-3.461-3.388c0-1.866,1.555-3.385,3.461-3.385
	C12.704,7.184,14.256,8.701,14.256,10.568z"/>
</svg>
