<?xml version="1.0"?>
<svg width="100" height="100" xmlns="http://www.w3.org/2000/svg" xmlns:svg="http://www.w3.org/2000/svg">
 <g>
  <title>Layer 1</title>
  <g id="svg_1">
   <path id="svg_2" d="m33.713001,60.096001l8.945999,0l0,-6.580002l-9.833,0c0.095001,2.268002 0.393002,4.474003 0.887001,6.580002z"/>
   <path id="svg_3" d="m36.657001,67.626999c1.106998,1.844002 2.412998,3.328003 3.779999,4.291c0.729,0.514 1.473,0.881004 2.222,1.098999l0,-9.627998l-7.980999,0c0.552998,1.542 1.215,2.962997 1.979,4.237999z"/>
   <path id="svg_4" d="m32.826,50.226002l9.833,0l0,-6.581001l-8.945999,0c-0.493999,2.105999 -0.792,4.312 -0.887001,6.581001z"/>
   <path id="svg_5" d="m36.657001,36.115002c-0.764,1.275997 -1.426003,2.695999 -1.978001,4.239998l7.980999,0l0,-9.629999c-0.749001,0.218 -1.493,0.583 -2.222,1.098999c-1.368,0.962999 -2.673,2.446001 -3.780998,4.291002z"/>
   <path id="svg_6" d="m35.081001,32.57c-2.187,1.047001 -4.166,2.449001 -5.897001,4.178001c-1.104,1.105 -2.075001,2.310997 -2.903999,3.605999l4.929998,0c0.957001,-3.019001 2.280003,-5.668999 3.871002,-7.784z"/>
   <path id="svg_7" d="m26.278999,63.389c0.829,1.294998 1.800001,2.500999 2.904001,3.605003c1.73,1.729996 3.710001,3.131996 5.897001,4.178993c-1.591003,-2.114998 -2.913002,-4.764999 -3.873001,-7.783997l-4.928001,0l0,0z"/>
   <path id="svg_8" d="m30.344,43.646l-5.784,0c-0.876999,2.102001 -1.406,4.309002 -1.577999,6.581001l6.552999,0c0.089001,-2.294003 0.367001,-4.502003 0.809,-6.581001z"/>
   <path id="svg_9" d="m29.534,53.515999l-6.552999,0c0.171999,2.271999 0.699999,4.479 1.577999,6.580002l5.784,0c-0.441,-2.081001 -0.719,-4.288002 -0.809,-6.580002z"/>
   <path id="svg_10" d="m51.953999,36.115002c-1.108997,-1.845001 -2.413998,-3.328003 -3.779999,-4.292002c-0.729,-0.514 -1.473,-0.879999 -2.223,-1.099001l0,9.630001l7.980999,0c-0.550999,-1.542999 -1.212997,-2.963001 -1.978001,-4.238998z"/>
   <path id="svg_11" d="m59.077999,50.226002l6.551998,0c-0.172997,-2.272003 -0.699997,-4.479 -1.575996,-6.581001l-5.784,0c0.437,2.079998 0.716,4.287998 0.807999,6.581001z"/>
   <path id="svg_12" d="m53.529999,32.57c1.591,2.113998 2.914001,4.764999 3.872002,7.785l4.931,0c-0.830002,-1.294998 -1.802002,-2.502998 -2.906002,-3.605999c-1.73,-1.73 -3.707996,-3.132 -5.896999,-4.179001z"/>
   <path id="svg_13" d="m85.143997,1.743l-5.186996,0c-0.135002,-0.981 -1.042,-1.743 -2.152,-1.743l-63.764,0c-1.204,0 -2.179001,0.89 -2.179001,1.988l0,95.969001c0,1.097 0.975,1.987999 2.179001,1.987999l63.764,0c1.110001,0 2.019997,-0.762001 2.153,-1.741997l5.185997,0c1.651001,0 2.995003,-1.504005 2.995003,-3.352005l0,-89.756998c0,-1.847 -1.345001,-3.351 -2.995003,-3.351zm-40.837997,74.803997c-13.629,0 -24.676001,-11.047997 -24.676001,-24.675999c0,-13.628998 11.047001,-24.675999 24.676001,-24.675999c13.628002,0 24.676003,11.047001 24.676003,24.675999c-0.000999,13.628002 -11.048,24.675999 -24.676003,24.675999zm40.848999,18.305c0,0.191002 -0.063995,0.313004 -0.103996,0.368004l-5.066002,0l0,-90.494001l5.066002,0c0.038994,0.054 0.103996,0.177 0.103996,0.368l0,89.757998z"/>
   <path id="svg_14" d="m58.269001,60.096001l5.782001,0c0.876999,-2.102001 1.404999,-4.308002 1.578995,-6.580002l-6.552998,0c-0.091,2.292 -0.369999,4.499001 -0.807999,6.580002z"/>
   <path id="svg_15" d="m54.896999,43.646l-8.945999,0l0,6.581001l9.834999,0c-0.097,-2.27 -0.392998,-4.476002 -0.889,-6.581001z"/>
   <path id="svg_16" d="m55.785999,53.515999l-9.834999,0l0,6.580002l8.945999,0c0.496002,-2.105999 0.792,-4.312 0.889,-6.580002z"/>
   <path id="svg_17" d="m53.529999,71.170998c2.187,-1.045998 4.167,-2.448997 5.896,-4.178001c1.104,-1.103996 2.076,-2.309998 2.906002,-3.606995l-4.931,0c-0.957001,3.019997 -2.280003,5.670998 -3.871002,7.784996z"/>
   <path id="svg_18" d="m45.951,63.389l0,9.627998c0.75,-0.217995 1.493999,-0.584999 2.223,-1.098999c1.366001,-0.962997 2.671001,-2.446999 3.779999,-4.291c0.765003,-1.275002 1.427002,-2.695999 1.979,-4.240997l-7.980999,0l0,0.002998l-0.000999,0z"/>
  </g>
 </g>
</svg>