<?xml version="1.0" encoding="utf-8"?>
<!-- Generator: Adobe Illustrator 16.0.3, SVG Export Plug-In . SVG Version: 6.00 Build 0)  -->
<!DOCTYPE svg PUBLIC "-//W3C//DTD SVG 1.1//EN" "http://www.w3.org/Graphics/SVG/1.1/DTD/svg11.dtd">
<svg version="1.1" id="Layer_1" xmlns="http://www.w3.org/2000/svg" xmlns:xlink="http://www.w3.org/1999/xlink" x="0px" y="0px"
	 width="100px" height="100px" viewBox="0 0 100 100" enable-background="new 0 0 100 100" xml:space="preserve">
<g>
	<path fill="#999999" d="M21.964,50c0,1.617,1.315,2.932,2.931,2.932c1.617,0,2.932-1.315,2.933-2.931
		c0-1.617-1.315-2.932-2.931-2.932C23.279,47.069,21.964,48.383,21.964,50z"/>
	<path fill="#999999" d="M15.125,50c-0.001,4.4,1.717,8.541,4.836,11.661s7.262,4.838,11.661,4.838
		c6.673,0,12.651-3.979,15.229-10.138c0.154-0.371,0.517-0.611,0.92-0.611h4.979c0.266,0,0.521,0.107,0.708,0.294l3.063,3.072
		l3.063-3.072c0.187-0.187,0.444-0.294,0.708-0.294H62c0.266,0,0.521,0.107,0.708,0.294l3.063,3.071l0.058-0.059l0.001,0.002
		l0.763-0.654l2.356-2.36c0.189-0.19,0.439-0.294,0.705-0.294h1.709c0.265,0,0.521,0.107,0.709,0.294l3.062,3.071l3.065-3.071
		c0.189-0.19,0.439-0.294,0.705-0.294h0.221c3.17,0,5.75-2.579,5.75-5.749c-0.002-3.171-2.582-5.751-5.751-5.752L47.771,44.25
		c-0.403,0-0.767-0.241-0.924-0.616C44.273,37.479,38.298,33.5,31.625,33.5C22.527,33.5,15.125,40.902,15.125,50z M19.964,50.001
		c0-2.719,2.212-4.931,4.933-4.931c2.719,0,4.931,2.212,4.931,4.932c-0.001,2.717-2.214,4.93-4.933,4.93
		S19.964,52.721,19.964,50.001z"/>
</g>
</svg>
