<?xml version="1.0" encoding="utf-8"?>
<!-- Generator: Adobe Illustrator 16.0.3, SVG Export Plug-In . SVG Version: 6.00 Build 0)  -->
<!DOCTYPE svg PUBLIC "-//W3C//DTD SVG 1.1//EN" "http://www.w3.org/Graphics/SVG/1.1/DTD/svg11.dtd">
<svg version="1.1" id="Layer_6" xmlns="http://www.w3.org/2000/svg" xmlns:xlink="http://www.w3.org/1999/xlink" x="0px" y="0px"
	 width="100px" height="110.5px" viewBox="0 0 100 110.5" enable-background="new 0 0 100 110.5" xml:space="preserve">
<g>
	<path fill="#FF8500" d="M33.713,60.096h8.946v-6.58h-9.833C32.921,55.784,33.219,57.99,33.713,60.096z"/>
	<path fill="#FF8500" d="M36.657,67.627c1.107,1.844,2.413,3.328,3.78,4.291c0.729,0.514,1.473,0.881,2.222,1.1v-9.629h-7.981
		C35.231,64.932,35.893,66.352,36.657,67.627z"/>
	<path fill="#FF8500" d="M32.826,50.226h9.833v-6.581h-8.946C33.219,45.751,32.921,47.957,32.826,50.226z"/>
	<path fill="#FF8500" d="M36.657,36.115c-0.764,1.276-1.426,2.696-1.978,4.24h7.981v-9.63c-0.749,0.218-1.493,0.583-2.222,1.099
		C39.07,32.787,37.765,34.27,36.657,36.115z"/>
	<path fill="#FF8500" d="M35.081,32.57c-2.187,1.047-4.166,2.449-5.897,4.178c-1.104,1.105-2.075,2.311-2.904,3.606h4.93
		C32.167,37.335,33.49,34.685,35.081,32.57z"/>
	<path fill="#FF8500" d="M26.279,63.389c0.829,1.295,1.8,2.502,2.904,3.605c1.73,1.73,3.71,3.132,5.897,4.179
		c-1.591-2.114-2.913-4.765-3.873-7.784H26.279L26.279,63.389z"/>
	<path fill="#FF8500" d="M30.344,43.646H24.56c-0.877,2.102-1.406,4.309-1.578,6.581h6.553
		C29.624,47.933,29.902,45.725,30.344,43.646z"/>
	<path fill="#FF8500" d="M29.534,53.516h-6.553c0.172,2.272,0.7,4.479,1.578,6.58h5.784C29.902,58.016,29.624,55.809,29.534,53.516z
		"/>
	<path fill="#FF8500" d="M51.954,36.115c-1.108-1.845-2.414-3.328-3.78-4.292c-0.729-0.514-1.473-0.88-2.223-1.099v9.63h7.98
		C53.381,38.811,52.719,37.391,51.954,36.115z"/>
	<path fill="#FF8500" d="M59.078,50.226h6.552c-0.173-2.272-0.7-4.479-1.575-6.581H58.27C58.707,45.725,58.986,47.933,59.078,50.226
		z"/>
	<path fill="#FF8500" d="M53.529,32.57c1.592,2.114,2.914,4.765,3.873,7.785h4.931c-0.83-1.295-1.802-2.503-2.905-3.606
		C57.697,35.019,55.719,33.617,53.529,32.57z"/>
	<path fill="#FF8500" d="M85.145,1.743h-5.188C79.822,0.762,78.915,0,77.805,0H14.041c-1.204,0-2.179,0.89-2.179,1.988v95.969
		c0,1.098,0.975,1.988,2.179,1.988h63.764c1.11,0,2.021-0.762,2.153-1.742h5.187c1.65,0,2.994-1.504,2.994-3.352V5.094
		C88.139,3.247,86.794,1.743,85.145,1.743z M44.306,76.547c-13.629,0-24.676-11.048-24.676-24.676
		c0-13.629,11.047-24.676,24.676-24.676c13.627,0,24.676,11.047,24.676,24.676C68.98,65.499,57.934,76.547,44.306,76.547z
		 M85.154,94.852c0,0.191-0.063,0.313-0.104,0.369h-5.065V4.726h5.065c0.039,0.054,0.104,0.177,0.104,0.368V94.852z"/>
	<path fill="#FF8500" d="M58.27,60.096h5.781c0.877-2.102,1.405-4.308,1.579-6.58h-6.553C58.986,55.809,58.707,58.016,58.27,60.096z
		"/>
	<path fill="#FF8500" d="M54.896,43.646h-8.945v6.581h9.835C55.689,47.957,55.393,45.751,54.896,43.646z"/>
	<path fill="#FF8500" d="M55.786,53.516h-9.835v6.58h8.945C55.393,57.99,55.689,55.784,55.786,53.516z"/>
	<path fill="#FF8500" d="M53.529,71.171c2.188-1.046,4.168-2.448,5.896-4.178c1.104-1.104,2.076-2.31,2.906-3.607H57.4
		C56.443,66.406,55.121,69.057,53.529,71.171z"/>
	<path fill="#FF8500" d="M45.951,63.389v9.629c0.75-0.219,1.494-0.586,2.223-1.1c1.366-0.963,2.672-2.447,3.78-4.291
		c0.765-1.275,1.427-2.695,1.979-4.241h-7.981L45.951,63.389L45.951,63.389z"/>
</g>
<circle fill="#FFFFFF" cx="81.333" cy="92.334" r="17.667"/>
<path fill="#FF8500" d="M94.366,81.365l3.032,3.029L100,81.8c0,0-2.34-4.59-7.801-7.801L89.6,76.6l3.031,3.03l0,0l0.002,0.002
	l-0.66,0.658c-2.785-2.39-6.396-3.842-10.354-3.842c-8.801,0.001-15.932,7.134-15.932,15.935c0,8.795,7.131,15.928,15.932,15.928
	c8.799,0,15.93-7.133,15.93-15.928c0-3.959-1.451-7.572-3.839-10.357L94.366,81.365z M81.626,103.484
	c-6.101,0-11.063-4.959-11.063-11.057c0-6.104,4.965-11.068,11.063-11.068c6.103,0,11.062,4.965,11.062,11.068
	C92.688,98.525,87.729,103.484,81.626,103.484z"/>
<path fill="#FF8500" d="M83.468,84.146c0-0.752-0.61-1.363-1.366-1.363c-0.759,0-1.371,0.611-1.371,1.363v6.135v2.73v0.004h2.735
	l0,0H89.6c0.754,0,1.366-0.609,1.366-1.369c0-0.756-0.612-1.365-1.366-1.365h-6.134L83.468,84.146z"/>
</svg>
