<?xml version="1.0" encoding="utf-8"?>
<!-- Generator: Adobe Illustrator 16.0.4, SVG Export Plug-In . SVG Version: 6.00 Build 0)  -->
<!DOCTYPE svg PUBLIC "-//W3C//DTD SVG 1.1//EN" "http://www.w3.org/Graphics/SVG/1.1/DTD/svg11.dtd">
<svg version="1.1" id="Layer_1" xmlns="http://www.w3.org/2000/svg" xmlns:xlink="http://www.w3.org/1999/xlink" x="0px" y="0px"
	 width="50px" height="50px" viewBox="0 0 50 50" enable-background="new 0 0 50 50" xml:space="preserve">
<g>
	<path style="fill:#999;" d="M21.244,31.334H10.56c0-2.176,1.428-4.031,3.436-4.766c-0.431-0.438-0.744-1.105-0.901-2.11
		c-0.207,0.042-0.528-0.195-0.623-0.556c-0.097-0.367-0.16-0.96,0.049-1.017c0.062-0.017,0.127-0.005,0.19,0.028v-1.021
		c0-1.606-0.378-2.55,2.247-2.819l-0.023-0.006c0,0,2.069-0.199,2.614-0.689c0,0,0.015,0.414,0.235,0.868
		c1.211,0.464,1.363,1.537,1.328,2.647v1.021c0.064-0.033,0.129-0.045,0.191-0.028c0.209,0.057,0.098,0.672,0.002,1.041
		c-0.094,0.357-0.365,0.57-0.57,0.532c-0.153,0.957-0.489,1.644-0.955,2.101C19.803,27.287,21.244,29.146,21.244,31.334z
		 M43.667,12.833v24.333H6.333V12.833H43.667z M41.667,14.833H8.333v20.333h33.334V14.833z M39,18.833H24.167v2H39V18.833z M39,24
		H24.167v2H39V24z M39,29.168H24.167v2H39V29.168z"/>
</g>
</svg>
