<?xml version="1.0" encoding="utf-8"?>
<!-- Generator: Adobe Illustrator 16.0.0, SVG Export Plug-In . SVG Version: 6.00 Build 0)  -->
<!DOCTYPE svg PUBLIC "-//W3C//DTD SVG 1.1//EN" "http://www.w3.org/Graphics/SVG/1.1/DTD/svg11.dtd">
<svg version="1.1" id="Capa_1" xmlns="http://www.w3.org/2000/svg" xmlns:xlink="http://www.w3.org/1999/xlink" x="0px" y="0px"
	 width="27.436px" height="62.5px" viewBox="0 0 27.436 62.5" enable-background="new 0 0 27.436 62.5" xml:space="preserve">
<g>
	<path fill="#FFFFFF" d="M13.718,61.5c7.576,0,13.718-6.143,13.718-13.718c0-6.853-5.028-12.515-11.593-13.537V33.74v-0.506v-0.434
		c0.83-0.641,1.375-1.634,1.375-2.761c0-0.962-0.392-1.835-1.021-2.468l6.521-2.654V0h-3.25v0.5V1v21.125h-2V1V0.5h-7.5V1v21.125h-2
		V1V0.5V0h-3.25v24.918l6.521,2.654c-0.631,0.633-1.021,1.506-1.021,2.468c0,1.127,0.545,2.121,1.375,2.761v0.434v0.506v0.504
		C5.028,35.268,0,40.93,0,47.78C0,55.357,6.142,61.5,13.718,61.5z M11.218,30.041c0-0.845,0.424-1.59,1.066-2.043l1.434,0.583
		l1.434-0.583c0.645,0.453,1.066,1.198,1.066,2.043c0,0.682-0.275,1.298-0.72,1.75h-3.562
		C11.492,31.339,11.218,30.723,11.218,30.041z"/>
</g>
</svg>
