<?xml version="1.0" encoding="utf-8"?>
<!-- Generator: Adobe Illustrator 16.0.3, SVG Export Plug-In . SVG Version: 6.00 Build 0)  -->
<!DOCTYPE svg PUBLIC "-//W3C//DTD SVG 1.1//EN" "http://www.w3.org/Graphics/SVG/1.1/DTD/svg11.dtd">
<svg version="1.1" id="Layer_1" xmlns="http://www.w3.org/2000/svg" xmlns:xlink="http://www.w3.org/1999/xlink" x="0px" y="0px"
	 width="32px" height="32px" viewBox="0 0 32 32" enable-background="new 0 0 32 32" xml:space="preserve">
<g id="tag">
	<path d="M0.857,13.883l4.961-8c0.723-1.169,1.995-1.88,3.362-1.88h18.852c2.19,0,3.969,1.791,3.969,4v16c0,2.209-1.778,4-3.969,4
		H9.18c-1.367,0-2.639-0.711-3.362-1.881l-4.961-8C0.051,16.827,0.051,15.18,0.857,13.883z M2.538,17.063l4.961,8.002
		c0.365,0.588,0.992,0.938,1.681,0.938h18.852c1.096,0,1.984-0.897,1.984-2v-16c0-1.103-0.889-2-1.984-2H9.18
		c-0.688,0-1.315,0.352-1.681,0.939l-4.961,8C2.138,15.587,2.138,16.419,2.538,17.063z"/>
</g>
<g>
	<path d="M20.069,22.293l-0.003,2.094h-1.268v-2.014c-1.168-0.021-2.355-0.385-3.062-0.889l0.483-1.346
		c0.703,0.463,1.754,0.863,2.88,0.863c1.431,0,2.269-0.824,2.269-1.975c0-1.105-0.657-1.791-2.146-2.396
		c-2.053-0.806-3.324-1.751-3.322-3.504c0-1.671,1.186-2.938,3.02-3.243V7.87h1.27l-0.002,1.958c1.19,0.038,2.015,0.362,2.618,0.704
		l-0.502,1.329c-0.423-0.24-1.25-0.706-2.539-0.706c-1.55,0-2.004,0.928-2.004,1.752c0,1.028,0.615,1.55,2.367,2.295
		c2.074,0.849,3.121,1.876,3.121,3.667C23.25,20.479,22.144,21.971,20.069,22.293z"/>
</g>
</svg>
