<?xml version="1.0" encoding="utf-8"?>
<!-- Generator: Adobe Illustrator 16.0.3, SVG Export Plug-In . SVG Version: 6.00 Build 0)  -->
<!DOCTYPE svg PUBLIC "-//W3C//DTD SVG 1.1//EN" "http://www.w3.org/Graphics/SVG/1.1/DTD/svg11.dtd">
<svg version="1.1" id="Layer_2" xmlns="http://www.w3.org/2000/svg" xmlns:xlink="http://www.w3.org/1999/xlink" x="0px" y="0px"
	 width="512px" height="512px" viewBox="0 0 512 512" enable-background="new 0 0 512 512" xml:space="preserve">
<g>
	<path d="M426.074,37.731h-63.907h-53.54V26.272c0-13.284-10.782-24.049-24.063-24.049h-54.77
		c-13.297,0-24.054,10.765-24.054,24.049v11.459H154.5H88.293c-30.598,0-55.496,24.898-55.496,55.483V453.87
		c0,30.581,24.898,55.471,55.496,55.471h68.874h197h71.891c30.59,0,55.488-24.89,55.488-55.471V93.215
		C481.563,62.63,456.682,37.731,426.074,37.731z M257.184,13.076c6.628,0,12.002,5.375,12.002,11.998
		c0,6.615-5.374,11.989-12.002,11.989c-6.627,0-11.993-5.374-11.993-11.989C245.191,18.45,250.557,13.076,257.184,13.076z
		 M192.26,71.811h129.856v50.674H192.26V71.811z M426.092,477.632h-71.925H157.834H88.302c-13.122,0-23.795-10.665-23.795-23.762
		V93.215c0-13.109,10.673-23.782,23.795-23.782h64.865h7.81v56.654c0,15.253,12.402,27.652,27.664,27.652h137.086
		c15.254,0,27.656-12.399,27.656-27.652V69.433h9.451h63.24c13.105,0,23.762,10.673,23.762,23.782V453.87h0.017
		C449.862,466.967,439.197,477.632,426.092,477.632z"/>
	<path d="M162.448,207.016l-5.55,6.624c-1.872-4.772-6.494-8.17-11.936-8.17h-36.899c-7.079,0-12.838,5.759-12.838,12.838v40.652
		c0,7.075,5.759,12.834,12.838,12.834h36.899c7.088,0,12.838-5.759,12.838-12.834v-21.739l16.8-20.03
		c2.808-3.351,2.374-8.341-0.978-11.166C170.254,203.242,165.274,203.681,162.448,207.016z M149.26,258.969L149.26,258.969
		c-0.018,2.353-1.939,4.283-4.297,4.283h-36.899c-2.349,0-4.279-1.939-4.279-4.283v-40.653c0-2.357,1.931-4.279,4.279-4.279h36.899
		c2.357,0,4.279,1.922,4.279,4.279v4.459l-10.681,12.742c-2.809,3.364-7.689,3.656-10.891,0.677l-6.595-6.101
		c-3.192-2.988-8.24-2.8-11.183,0.409c-2.992,3.201-2.791,8.216,0.418,11.204l18.487,17.176c1.455,1.371,3.402,2.114,5.383,2.114
		c0.176,0,0.317,0,0.51-0.008c2.165-0.146,4.171-1.166,5.575-2.817l8.993-10.723V258.969z"/>
	<path d="M162.448,293.224l-6.135,7.313c-2.123-4.12-6.386-6.979-11.351-6.979h-36.899c-7.079,0-12.838,5.767-12.838,12.838v40.652
		c0,7.079,5.759,12.838,12.838,12.838h36.899c7.088,0,12.838-5.759,12.838-12.838v-23.61l16.8-20.026
		c2.808-3.351,2.374-8.349-0.978-11.174C170.254,289.438,165.274,289.88,162.448,293.224z M149.26,347.048L149.26,347.048
		c-0.018,2.357-1.939,4.279-4.297,4.279h-36.899c-2.349,0-4.279-1.922-4.279-4.279v-40.652c0-2.341,1.931-4.279,4.279-4.279h36.899
		c2.357,0,4.279,1.938,4.279,4.279v2.574l-10.681,12.754c-2.809,3.343-7.689,3.661-10.891,0.669l-6.595-6.102
		c-3.192-2.992-8.24-2.8-11.183,0.409c-2.992,3.21-2.791,8.233,0.418,11.208l18.487,17.184c1.455,1.371,3.402,2.123,5.383,2.123
		c0.176,0,0.317,0,0.51-0.033c2.165-0.134,4.171-1.153,5.575-2.8l8.993-10.724V347.048z"/>
	<path d="M162.448,379.878l-6.36,7.589c-2.215-3.87-6.336-6.536-11.125-6.536h-36.899c-7.079,0-12.838,5.75-12.838,12.838v40.652
		c0,7.071,5.759,12.838,12.838,12.838h36.899c7.088,0,12.838-5.767,12.838-12.838v-24.347l16.8-20.025
		c2.808-3.352,2.374-8.35-0.978-11.174C170.254,376.083,165.274,376.526,162.448,379.878z M149.26,434.421L149.26,434.421
		c-0.018,2.349-1.939,4.279-4.297,4.279h-36.899c-2.349,0-4.279-1.931-4.279-4.279v-40.652c0-2.349,1.931-4.279,4.279-4.279h36.899
		c2.357,0,4.279,1.931,4.279,4.279v1.855l-10.681,12.737c-2.809,3.359-7.689,3.661-10.891,0.686l-6.595-6.109
		c-3.192-2.984-8.24-2.801-11.183,0.409c-2.992,3.209-2.791,8.224,0.418,11.199l18.487,17.192c1.455,1.362,3.402,2.123,5.383,2.123
		c0.176,0,0.317,0,0.51-0.025c2.165-0.134,4.171-1.153,5.575-2.808l8.993-10.724V434.421z"/>
	<path d="M410.651,233.239H245.525c-4.396,0-7.939,3.536-7.939,7.919c0,4.396,3.544,7.932,7.939,7.932h165.135
		c4.388,0,7.932-3.536,7.932-7.932C418.582,236.774,415.039,233.239,410.651,233.239z"/>
	<path d="M410.651,310.867H245.525c-4.396,0-7.939,3.543-7.939,7.932c0,4.379,3.544,7.923,7.939,7.923h165.135
		c4.388,0,7.932-3.544,7.932-7.923C418.582,314.41,415.039,310.867,410.651,310.867z"/>
	<path d="M410.651,388.503H245.525c-4.396,0-7.939,3.544-7.939,7.94c0,4.371,3.544,7.914,7.939,7.914h165.135
		c4.388,0,7.932-3.543,7.932-7.914C418.582,392.047,415.039,388.503,410.651,388.503z"/>
</g>
</svg>
