<?xml version="1.0" encoding="utf-8"?>
<!-- Generator: Adobe Illustrator 16.0.3, SVG Export Plug-In . SVG Version: 6.00 Build 0)  -->
<!DOCTYPE svg PUBLIC "-//W3C//DTD SVG 1.1//EN" "http://www.w3.org/Graphics/SVG/1.1/DTD/svg11.dtd">
<svg version="1.1" id="Layer_1" xmlns="http://www.w3.org/2000/svg" xmlns:xlink="http://www.w3.org/1999/xlink" x="0px" y="0px"
	 width="32px" height="32px" viewBox="0 0 32 32" enable-background="new 0 0 32 32" xml:space="preserve">
<g id="calendar_1_">
	<path fill="#333332" d="M29.599,2.702h-3.902V0.901C25.696,0.402,25.293,0,24.795,0c-0.497,0-0.9,0.402-0.9,0.901v1.802h-5.403
		V0.901C18.491,0.402,18.088,0,17.59,0c-0.499,0-0.901,0.402-0.901,0.901v1.802h-5.404V0.901C11.287,0.402,10.883,0,10.386,0
		S9.485,0.402,9.485,0.901v1.802H5.582c-1.326,0-2.402,1.075-2.402,2.401v21.314c0,1.328,1.075,2.402,2.402,2.402h24.017
		c1.327,0,2.401-1.074,2.401-2.402V5.103C32,3.776,30.926,2.702,29.599,2.702z M30.199,26.417c0,0.332-0.269,0.601-0.601,0.601
		H5.582c-0.331,0-0.6-0.269-0.6-0.601V5.103c0-0.331,0.269-0.6,0.6-0.6h3.903v1.801c0,0.499,0.403,0.901,0.901,0.901
		s0.901-0.402,0.901-0.901v-1.8h5.404v1.8c0,0.499,0.403,0.901,0.901,0.901s0.901-0.402,0.901-0.901v-1.8h5.403v1.8
		c0,0.499,0.403,0.901,0.902,0.901c0.498,0,0.901-0.402,0.901-0.901v-1.8h3.902c0.332,0,0.601,0.269,0.601,0.601v21.313H30.199z"/>
	<rect x="9.485" y="10.807" fill="#333332" width="3.603" height="2.702"/>
	<rect x="9.485" y="15.311" fill="#333332" width="3.603" height="2.701"/>
	<rect x="9.485" y="19.813" fill="#333332" width="3.603" height="2.702"/>
	<rect x="15.789" y="19.813" fill="#333332" width="3.602" height="2.702"/>
	<rect x="15.789" y="15.311" fill="#333332" width="3.602" height="2.701"/>
	<rect x="15.789" y="10.807" fill="#333332" width="3.602" height="2.702"/>
	<rect x="22.094" y="19.813" fill="#333332" width="3.603" height="2.702"/>
	<rect x="22.094" y="15.311" fill="#333332" width="3.603" height="2.701"/>
	<rect x="22.094" y="10.807" fill="#333332" width="3.603" height="2.702"/>
</g>
<g id="calendar_2_">
	<path fill="#333332" d="M28.458,28.999c-0.14,0.011-0.28,0-0.429,0c-0.133,0-0.258,0.006-0.387,0v1.274
		c0,0.25-0.201,0.453-0.451,0.453H1.725c-0.25,0-0.452-0.203-0.452-0.453V8.23c0-0.248,0.202-0.451,0.452-0.451L3.031,7.79
		c-0.016-0.419,0.006-0.839,0-1.259c0-0.033,0-0.063,0-0.097L1.725,6.423c-0.998,0-1.808,0.809-1.808,1.808v22.044
		c0,1,0.809,1.809,1.808,1.809h25.466c1,0,1.809-0.809,1.809-1.809v-1.276C28.814,28.976,28.634,29.037,28.458,28.999z"/>
</g>
</svg>
