<?xml version="1.0" encoding="utf-8"?>
<!-- Generator: Adobe Illustrator 16.0.0, SVG Export Plug-In . SVG Version: 6.00 Build 0)  -->
<!DOCTYPE svg PUBLIC "-//W3C//DTD SVG 1.1//EN" "http://www.w3.org/Graphics/SVG/1.1/DTD/svg11.dtd">
<svg version="1.1" id="Layer_1" xmlns="http://www.w3.org/2000/svg" xmlns:xlink="http://www.w3.org/1999/xlink" x="0px" y="0px"
	 width="64px" height="49.25px" viewBox="0 7.417 64 49.25" enable-background="new 0 7.417 64 49.25" xml:space="preserve">
<g>
	<path d="M37.464,7.768c-1.784,0-3.554,0.194-5.258,0.573l0.028,0.129c-1.83-0.438-3.731-0.703-5.694-0.703
		c-13.363,0-24.234,10.872-24.234,24.234c0,13.358,10.872,24.229,24.234,24.229c1.87,0,3.683-0.233,5.432-0.633
		c1.79,0.416,3.635,0.633,5.492,0.633c13.358,0,24.229-10.871,24.229-24.229C61.693,18.639,50.822,7.768,37.464,7.768z
		 M27.59,43.293l-0.004,3.837h-2.322v-3.688c-2.141-0.039-4.317-0.705-5.609-1.627l0.884-2.467c1.288,0.848,3.214,1.582,5.278,1.582
		c2.621,0,4.155-1.51,4.155-3.617c0-2.026-1.204-3.282-3.933-4.391c-3.76-1.478-6.09-3.21-6.086-6.421
		c0-3.062,2.172-5.383,5.532-5.941v-3.69h2.326l-0.004,3.586c2.181,0.069,3.691,0.663,4.796,1.289l-0.919,2.435
		c-0.775-0.44-2.29-1.292-4.652-1.292c-2.839,0-3.671,1.7-3.671,3.21c0,1.882,1.127,2.839,4.337,4.204
		c3.8,1.555,5.718,3.438,5.718,6.72C33.417,39.97,31.39,42.704,27.59,43.293z M37.464,53.898c-0.187,0-0.366-0.024-0.549-0.032
		c8.178-3.897,13.854-12.218,13.854-21.864c0-9.652-5.683-17.975-13.858-21.868c0.187-0.004,0.366-0.033,0.553-0.033
		c12.075,0,21.896,9.826,21.896,21.9C59.359,44.077,49.539,53.898,37.464,53.898z"/>
</g>
</svg>
