<?xml version="1.0" encoding="utf-8"?>
<!-- Generator: Adobe Illustrator 16.0.3, SVG Export Plug-In . SVG Version: 6.00 Build 0)  -->
<!DOCTYPE svg PUBLIC "-//W3C//DTD SVG 1.1//EN" "http://www.w3.org/Graphics/SVG/1.1/DTD/svg11.dtd">
<svg version="1.1" id="Layer_1" xmlns="http://www.w3.org/2000/svg" xmlns:xlink="http://www.w3.org/1999/xlink" x="0px" y="0px"
	 width="24px" height="24px" viewBox="0 0 24 24" enable-background="new 0 0 24 24" xml:space="preserve">
<g>
	<path style="fill:#F00" d="M11.954,2.433c0.682,0,1.361,0.431,1.877,1.292l7.191,11.984c1.033,1.721,0.235,3.129-1.772,3.129H4.656
		c-2.006,0-2.806-1.409-1.771-3.129l7.19-11.984C10.593,2.864,11.271,2.433,11.954,2.433 M11.954,0C10.377,0,8.935,0.9,7.99,2.47
		L0.8,14.458c-0.956,1.592-1.061,3.29-0.286,4.658c0.774,1.368,2.285,2.154,4.142,2.154H19.25c1.857,0,3.368-0.786,4.143-2.154
		s0.67-3.065-0.284-4.658l-7.19-11.984C14.973,0.9,13.529,0,11.954,0z"/>
</g>
<g>
	<circle style="fill:#F00" cx="11.954" cy="15.189" r="1.581"/>
</g>
<g>
	<path style="fill:#F00" d="M13.778,7.892c0-1.009-0.816-1.824-1.825-1.824s-1.824,0.815-1.824,1.824c0,0.243,0.05,0.474,0.135,0.684
		c0.674,1.673,1.689,4.181,1.689,4.181s1.015-2.508,1.691-4.181C13.729,8.366,13.778,8.135,13.778,7.892z"/>
</g>
</svg>
