<?xml version="1.0" encoding="utf-8"?>
<!-- Generator: Adobe Illustrator 16.0.3, SVG Export Plug-In . SVG Version: 6.00 Build 0)  -->
<!DOCTYPE svg PUBLIC "-//W3C//DTD SVG 1.1//EN" "http://www.w3.org/Graphics/SVG/1.1/DTD/svg11.dtd">
<svg version="1.1" id="Layer_6" xmlns="http://www.w3.org/2000/svg" xmlns:xlink="http://www.w3.org/1999/xlink" x="0px" y="0px"
	 width="100px" height="110.5px" viewBox="0 0 100 110.5" enable-background="new 0 0 100 110.5" xml:space="preserve">
<g>
	<path fill="#DC0000" d="M33.713,60.096h8.946v-6.58h-9.833C32.921,55.784,33.219,57.99,33.713,60.096z"/>
	<path fill="#DC0000" d="M36.657,67.627c1.107,1.844,2.413,3.328,3.78,4.291c0.729,0.514,1.473,0.881,2.222,1.1v-9.629h-7.981
		C35.231,64.932,35.893,66.352,36.657,67.627z"/>
	<path fill="#DC0000" d="M32.826,50.226h9.833v-6.581h-8.946C33.219,45.751,32.921,47.957,32.826,50.226z"/>
	<path fill="#DC0000" d="M36.657,36.115c-0.764,1.276-1.426,2.696-1.978,4.24h7.981v-9.63c-0.749,0.218-1.493,0.583-2.222,1.099
		C39.07,32.787,37.765,34.27,36.657,36.115z"/>
	<path fill="#DC0000" d="M35.081,32.57c-2.187,1.047-4.166,2.449-5.897,4.178c-1.104,1.105-2.075,2.311-2.904,3.606h4.93
		C32.167,37.335,33.49,34.685,35.081,32.57z"/>
	<path fill="#DC0000" d="M26.279,63.389c0.829,1.295,1.8,2.502,2.904,3.605c1.73,1.73,3.71,3.132,5.897,4.179
		c-1.591-2.114-2.913-4.765-3.873-7.784H26.279L26.279,63.389z"/>
	<path fill="#DC0000" d="M30.344,43.646H24.56c-0.877,2.102-1.406,4.309-1.578,6.581h6.553
		C29.624,47.933,29.902,45.725,30.344,43.646z"/>
	<path fill="#DC0000" d="M29.534,53.516h-6.553c0.172,2.272,0.7,4.479,1.578,6.58h5.784C29.902,58.016,29.624,55.809,29.534,53.516z
		"/>
	<path fill="#DC0000" d="M51.954,36.115c-1.108-1.845-2.414-3.328-3.78-4.292c-0.729-0.514-1.473-0.88-2.223-1.099v9.63h7.98
		C53.381,38.811,52.719,37.391,51.954,36.115z"/>
	<path fill="#DC0000" d="M59.078,50.226h6.552c-0.173-2.272-0.7-4.479-1.575-6.581H58.27C58.707,45.725,58.986,47.933,59.078,50.226
		z"/>
	<path fill="#DC0000" d="M53.529,32.57c1.592,2.114,2.914,4.765,3.873,7.785h4.931c-0.83-1.295-1.802-2.503-2.905-3.606
		C57.697,35.019,55.719,33.617,53.529,32.57z"/>
	<path fill="#DC0000" d="M85.145,1.743h-5.188C79.822,0.762,78.915,0,77.805,0H14.041c-1.204,0-2.179,0.89-2.179,1.988v95.969
		c0,1.098,0.975,1.988,2.179,1.988h63.764c1.11,0,2.021-0.762,2.153-1.742h5.187c1.65,0,2.994-1.504,2.994-3.352V5.094
		C88.139,3.247,86.794,1.743,85.145,1.743z M44.306,76.547c-13.629,0-24.676-11.048-24.676-24.676
		c0-13.629,11.047-24.676,24.676-24.676c13.627,0,24.676,11.047,24.676,24.676C68.98,65.499,57.934,76.547,44.306,76.547z
		 M85.154,94.852c0,0.191-0.063,0.313-0.104,0.369h-5.065V4.726h5.065c0.039,0.054,0.104,0.177,0.104,0.368V94.852z"/>
	<path fill="#DC0000" d="M58.27,60.096h5.781c0.877-2.102,1.405-4.308,1.579-6.58h-6.553C58.986,55.809,58.707,58.016,58.27,60.096z
		"/>
	<path fill="#DC0000" d="M54.896,43.646h-8.945v6.581h9.835C55.689,47.957,55.393,45.751,54.896,43.646z"/>
	<path fill="#DC0000" d="M55.786,53.516h-9.835v6.58h8.945C55.393,57.99,55.689,55.784,55.786,53.516z"/>
	<path fill="#DC0000" d="M53.529,71.171c2.188-1.046,4.168-2.448,5.896-4.178c1.104-1.104,2.076-2.31,2.906-3.607H57.4
		C56.443,66.406,55.121,69.057,53.529,71.171z"/>
	<path fill="#DC0000" d="M45.951,63.389v9.629c0.75-0.219,1.494-0.586,2.223-1.1c1.366-0.963,2.672-2.447,3.78-4.291
		c0.765-1.275,1.427-2.695,1.979-4.241h-7.981L45.951,63.389L45.951,63.389z"/>
</g>
<g>
	<path fill="#FFFFFF" d="M80.204,72.011c-2.607,0-4.997,1.491-6.563,4.09L61.735,95.952c-1.584,2.636-1.756,5.447-0.473,7.712
		c1.281,2.268,3.785,3.568,6.859,3.568h24.167c3.075,0,5.577-1.301,6.86-3.568c1.28-2.265,1.11-5.075-0.474-7.712L86.77,76.108
		C85.205,73.502,82.814,72.011,80.204,72.011z"/>
</g>
<g>
	<path fill="#DC0000" d="M80.717,78.878c0.944,0,1.885,0.596,2.6,1.789l9.952,16.587c1.432,2.382,0.327,4.331-2.451,4.331h-20.2
		c-2.777,0-3.885-1.95-2.451-4.331l9.952-16.587C78.833,79.474,79.772,78.878,80.717,78.878 M80.717,75.511
		c-2.181,0-4.178,1.246-5.486,3.419l-9.952,16.593c-1.323,2.203-1.468,4.554-0.395,6.447c1.071,1.895,3.163,2.982,5.733,2.982h20.2
		c2.571,0,4.662-1.088,5.734-2.982c1.07-1.894,0.928-4.243-0.396-6.447l-9.953-16.587C84.896,76.757,82.898,75.511,80.717,75.511z"
		/>
</g>
<g>
	<circle fill="#DC0000" cx="80.717" cy="96.535" r="2.188"/>
</g>
<g>
	<path fill="#DC0000" d="M83.242,86.435c0-1.396-1.13-2.525-2.525-2.525s-2.524,1.129-2.524,2.525c0,0.336,0.068,0.655,0.186,0.947
		c0.934,2.314,2.339,5.787,2.339,5.787s1.405-3.473,2.341-5.787C83.173,87.09,83.242,86.771,83.242,86.435z"/>
</g>
</svg>
